<?xml version="1.0" encoding="UTF-8" standalone="no"?>
<!-- Created with Inkscape (http://www.inkscape.org/) -->

<svg
   xmlns:dc="http://purl.org/dc/elements/1.1/"
   xmlns:cc="http://creativecommons.org/ns#"
   xmlns:rdf="http://www.w3.org/1999/02/22-rdf-syntax-ns#"
   xmlns:svg="http://www.w3.org/2000/svg"
   xmlns="http://www.w3.org/2000/svg"
   xmlns:sodipodi="http://sodipodi.sourceforge.net/DTD/sodipodi-0.dtd"
   xmlns:inkscape="http://www.inkscape.org/namespaces/inkscape"
   id="svg8"
   version="1.1"
   viewBox="0 0 158.76894 157.58426"
   height="157.58426mm"
   width="158.76894mm"
   inkscape:version="0.92.2 (5c3e80d, 2017-08-06)"
   sodipodi:docname="logo.svg">
  <sodipodi:namedview
     inkscape:object-paths="true"
     inkscape:window-maximized="1"
     inkscape:window-y="-8"
     inkscape:window-x="-8"
     inkscape:window-height="1017"
     inkscape:window-width="1920"
     showborder="false"
     showgrid="false"
     inkscape:current-layer="layer4"
     inkscape:document-units="px"
     inkscape:cy="380.94568"
     inkscape:cx="322.67648"
     inkscape:zoom="0.70710678"
     inkscape:pageshadow="2"
     inkscape:pageopacity="0.0"
     borderopacity="1.0"
     bordercolor="#666666"
     pagecolor="#ffffff"
     id="base"
     inkscape:snap-global="true"
     inkscape:object-nodes="false"
     inkscape:snap-object-midpoints="false"
     inkscape:snap-bbox="true"
     fit-margin-top="0"
     fit-margin-left="0"
     fit-margin-right="0"
     fit-margin-bottom="0" />
  <defs
     id="defs2">
    <inkscape:perspective
       sodipodi:type="inkscape:persp3d"
       inkscape:vp_x="-28.437477 : 149.24835 : 1"
       inkscape:vp_y="0 : 999.99997 : 0"
       inkscape:vp_z="210 : 148.5 : 1"
       inkscape:persp3d-origin="105 : 98.999997 : 1"
       id="perspective6599" />
    <inkscape:path-effect
       effect="curvestitching"
       id="path-effect6493"
       is_visible="true"
       count="5"
       startpoint_edge_variation="0;1"
       startpoint_spacing_variation="0;1"
       endpoint_edge_variation="0;1"
       endpoint_spacing_variation="0;1"
       strokepath="M -574.60156,124.36457 -547.7293,5.9374421"
       prop_scale="1"
       scale_y_rel="false"
       strokepath-nodetypes="cc" />
    <inkscape:path-effect
       effect="curvestitching"
       id="path-effect2783"
       is_visible="true"
       count="10"
       startpoint_edge_variation="0;1"
       startpoint_spacing_variation="0;1"
       endpoint_edge_variation="0;1"
       endpoint_spacing_variation="0;1"
       strokepath="M 0,0 H 1"
       prop_scale="1"
       scale_y_rel="false" />
  </defs>
  <metadata
     id="metadata5">
    <rdf:RDF>
      <cc:Work
         rdf:about="">
        <dc:format>image/svg+xml</dc:format>
        <dc:type
           rdf:resource="http://purl.org/dc/dcmitype/StillImage" />
        <dc:title></dc:title>
      </cc:Work>
    </rdf:RDF>
  </metadata>
  <g
     inkscape:groupmode="layer"
     id="layer4"
     inkscape:label="center"
     style="display:inline"
     transform="translate(2.9528361e-8,-139.41575)">
    <path
       id="path2362"
       style="opacity:1;fill:none;fill-opacity:1;stroke:#287fb8;stroke-width:1.00012481;stroke-linecap:round;stroke-linejoin:round;stroke-miterlimit:4;stroke-dasharray:none;stroke-opacity:1"
       d="m 68.974105,203.28234 22.583625,1.63763 a 2.6941356,2.6937041 19.138962 0 0 0.5979,2.30373 2.6941356,2.6937041 19.138962 0 0 1.93839,0.9276 l -1.61644,22.30561 a 2.6941356,2.6937041 19.138962 0 0 -2.303235,0.59739 2.6941356,2.6937041 19.138962 0 0 -0.92757,1.95491 l -22.30306,-1.41076 a 2.6941356,2.6937041 19.138962 0 0 -0.64076,-2.019 2.6941356,2.6937041 19.138962 0 0 -2.16319,-0.92863 l 1.84277,-22.54023 a 2.6941356,2.6937041 19.138962 0 0 2.06656,-0.63562 2.6941356,2.6937041 19.138962 0 0 0.92501,-2.19263 z m -2.80138,-2.53628 a 2.6941356,2.6937041 19.138962 0 0 -1.64849,0.65371 2.6941356,2.6937041 19.138962 0 0 -0.27543,3.79977 2.6941356,2.6937041 19.138962 0 0 1.53789,0.88263 l -1.84589,22.58726 a 2.6941356,2.6937041 19.138962 0 0 -1.43764,0.63407 2.6941356,2.6937041 19.138962 0 0 -0.27543,3.79925 2.6941356,2.6937041 19.138962 0 0 3.80029,0.27543 2.6941356,2.6937041 19.138962 0 0 0.8914,-1.58491 l 22.32578,1.4118 a 2.6941356,2.6937041 19.138962 0 0 0.65424,1.64899 2.6941356,2.6937041 19.138962 0 0 3.799765,0.27544 2.6941356,2.6937041 19.138962 0 0 0.27543,-3.79977 2.6941356,2.6937041 19.138962 0 0 -1.30379,-0.82734 l 1.62005,-22.34954 a 2.6941356,2.6937041 19.138962 0 0 1.66502,-0.65423 2.6941356,2.6937041 19.138962 0 0 0.27543,-3.79925 2.6941356,2.6937041 19.138962 0 0 -3.80029,-0.27595 2.6941356,2.6937041 19.138962 0 0 -0.82682,1.30224 l -22.648235,-1.64124 a 2.6941356,2.6937041 19.138962 0 0 -0.63148,-1.4087 2.6941356,2.6937041 19.138962 0 0 -2.1518,-0.92966 z m -13.53304,-18.19269 a 5.4871003,5.4865156 55.67955 0 0 -3.35741,1.33171 5.4871003,5.4865156 55.67955 0 0 -0.56068,7.73958 5.4871003,5.4865156 55.67955 0 0 3.13159,1.7973 l -3.75844,46.00857 a 5.4871003,5.4865156 55.67955 0 0 -2.92851,1.29139 5.4871003,5.4865156 55.67955 0 0 -0.56068,7.73906 5.4871003,5.4865156 55.67955 0 0 7.73906,0.56121 5.4871003,5.4865156 55.67955 0 0 1.81592,-3.22823 l 45.468015,2.87476 a 5.4871003,5.4865156 55.67955 0 0 1.3317,3.35949 5.4871003,5.4865156 55.67955 0 0 7.73906,0.5612 5.4871003,5.4865156 55.67955 0 0 0.56071,-7.73958 5.4871003,5.4865156 55.67955 0 0 -2.65462,-1.68516 l 3.29851,-45.52436 a 5.4871003,5.4865156 55.67955 0 0 3.39151,-1.33222 5.4871003,5.4865156 55.67955 0 0 0.5607,-7.73958 5.4871003,5.4865156 55.67955 0 0 -7.73906,-0.5612 5.4871003,5.4865156 55.67955 0 0 -1.68466,2.65255 l -46.124315,-3.34295 a 5.4871003,5.4865156 55.67955 0 0 -1.28674,-2.87011 5.4871003,5.4865156 55.67955 0 0 -4.38166,-1.89343 z m -5.67457,-11.5657 71.131565,5.15989 a 8.4865003,8.4852043 56.990341 0 0 1.88362,7.25744 8.4865003,8.4852043 56.990341 0 0 6.10555,2.92179 l -5.09064,70.26962 a 8.4865003,8.4852043 56.990341 0 0 -7.25331,1.88257 8.4865003,8.4852043 56.990341 0 0 -2.92177,6.15724 l -70.249465,-4.4452 a 8.4865003,8.4852043 56.990341 0 0 -2.01796,-6.36085 8.4865003,8.4852043 56.990341 0 0 -6.81251,-2.92593 l 5.80223,-71.00703 a 8.4865003,8.4852043 56.990341 0 0 6.50917,-2.00195 8.4865003,8.4852043 56.990341 0 0 2.91352,-6.90759 z m -8.82375,-7.99021 a 8.4865003,8.4852043 56.990341 0 0 -5.19245,2.05931 8.4865003,8.4852043 56.990341 0 0 -0.86662,11.96981 8.4865003,8.4852043 56.990341 0 0 4.84312,2.78019 l -5.81154,71.1569 a 8.4865003,8.4852043 56.990341 0 0 -4.52893,1.99678 8.4865003,8.4852043 56.990341 0 0 -0.86662,11.96981 8.4865003,8.4852043 56.990341 0 0 11.9693,0.86868 8.4865003,8.4852043 56.990341 0 0 2.80811,-4.99297 l 70.319215,4.44727 a 8.4865003,8.4852043 56.990341 0 0 2.06036,5.19555 8.4865003,8.4852043 56.990341 0 0 11.96927,0.86816 8.4865003,8.4852043 56.990341 0 0 0.86662,-11.96981 8.4865003,8.4852043 56.990341 0 0 -4.1062,-2.60604 l 5.10045,-70.40914 a 8.4865003,8.4852043 56.990341 0 0 5.24518,-2.06034 8.4865003,8.4852043 56.990341 0 0 0.86659,-11.96981 8.4865003,8.4852043 56.990341 0 0 -11.96877,-0.86817 8.4865003,8.4852043 56.990341 0 0 -2.60551,4.10259 l -71.334685,-5.17178 a 8.4865003,8.4852043 56.990341 0 0 -1.99004,-4.439 8.4865003,8.4852043 56.990341 0 0 -6.77685,-2.92799 z m -17.09148,-23.07094 a 12.037515,12.035376 57.41432 0 0 -7.36491,2.92127 12.037515,12.035376 57.41432 0 0 -1.22889,16.97829 12.037515,12.035376 57.41432 0 0 6.86935,3.94343 l -8.24238,100.93079 a 12.037515,12.035376 57.41432 0 0 -6.42389,2.83187 12.037515,12.035376 57.41432 0 0 -1.22886,16.97829 12.037515,12.035376 57.41432 0 0 16.97725,1.23197 12.037515,12.035376 57.41432 0 0 3.98323,-7.08226 l 99.741195,6.3097 a 12.037515,12.035376 57.41432 0 0 2.9223,7.36957 12.037515,12.035376 57.41432 0 0 16.97675,1.23145 12.037515,12.035376 57.41432 0 0 1.22936,-16.97829 12.037515,12.035376 57.41432 0 0 -5.82393,-3.69693 l 7.23368,-99.86936 a 12.037515,12.035376 57.41432 0 0 7.43934,-2.9223 12.037515,12.035376 57.41432 0 0 1.22936,-16.9783 12.037515,12.035376 57.41432 0 0 -16.97725,-1.23145 12.037515,12.035376 57.41432 0 0 -3.69588,5.81929 L 33.484805,150.37653 a 12.037515,12.035376 57.41432 0 0 -2.82258,-6.29678 12.037515,12.035376 57.41432 0 0 -9.61234,-4.15323 z"
       inkscape:connector-curvature="0" />
  </g>
</svg>
