<?xml version="1.0" encoding="UTF-8" standalone="no"?>
<!-- Created with Inkscape (http://www.inkscape.org/) -->

<svg
   xmlns:dc="http://purl.org/dc/elements/1.1/"
   xmlns:cc="http://creativecommons.org/ns#"
   xmlns:rdf="http://www.w3.org/1999/02/22-rdf-syntax-ns#"
   xmlns:svg="http://www.w3.org/2000/svg"
   xmlns="http://www.w3.org/2000/svg"
   xmlns:sodipodi="http://sodipodi.sourceforge.net/DTD/sodipodi-0.dtd"
   xmlns:inkscape="http://www.inkscape.org/namespaces/inkscape"
   version="1.1"
   id="svg2"
   width="121.98472"
   height="115.89626"
   viewBox="0 0 121.98472 115.89626"
   sodipodi:docname="spsjm.svg"
   inkscape:version="0.92.2 (5c3e80d, 2017-08-06)"
   inkscape:export-filename="F:\Java - Eclipse\Maturita\frontend\styles\src\assets\g12.png"
   inkscape:export-xdpi="96"
   inkscape:export-ydpi="96">
  <metadata
     id="metadata8">
    <rdf:RDF>
      <cc:Work
         rdf:about="">
        <dc:format>image/svg+xml</dc:format>
        <dc:type
           rdf:resource="http://purl.org/dc/dcmitype/StillImage" />
        <dc:title></dc:title>
      </cc:Work>
    </rdf:RDF>
  </metadata>
  <defs
     id="defs6" />
  <sodipodi:namedview
     pagecolor="#ffffff"
     bordercolor="#666666"
     borderopacity="1"
     objecttolerance="10"
     gridtolerance="10"
     guidetolerance="10"
     inkscape:pageopacity="0"
     inkscape:pageshadow="2"
     inkscape:window-width="1920"
     inkscape:window-height="1017"
     id="namedview4"
     showgrid="false"
     inkscape:zoom="4"
     inkscape:cx="45.946902"
     inkscape:cy="59.035894"
     inkscape:window-x="-8"
     inkscape:window-y="-8"
     inkscape:window-maximized="1"
     inkscape:current-layer="svg2"
     showborder="false"
     units="mm"
     borderlayer="true"
     inkscape:showpageshadow="false"
     inkscape:pagecheckerboard="true"
     fit-margin-top="0"
     fit-margin-left="0"
     fit-margin-right="0"
     fit-margin-bottom="0" />
  <path
     style="fill:#287fb8"
     d="M 45,113.51821 C 33.69387,110.14675 25.375936,105.28869 17.389246,97.392255 6.753748,86.876945 0,71.50204 0,57.805646 0,43.937082 7.802844,26.910463 18.772142,16.842874 44.03234,-6.3408607 80.86318,-5.5014167 105,18.80817 c 11.13596,11.215675 16.98472,24.663969 16.98472,39.053685 0,14.378651 -5.84496,27.82485 -16.98472,39.07293 C 96.38306,105.63553 91.05269,108.87725 78.65982,112.95389 67.33263,116.67996 56.22724,116.86615 45,113.51821 Z m 10,-3.37349 c 0,-2.52949 -0.0489,-2.54862 -2,-0.78286 -1.1,0.99549 -2,2.09447 -2,2.44218 0,0.34772 0.9,0.70001 2,0.78287 1.5245,0.11483 2,-0.4658 2,-2.44219 z m 5.98899,-10.03286 C 60.97611,85.187525 60.28711,79.861855 58.36916,79.861855 c -1.10356,0 -1.36916,3.2008 -1.36916,16.5 0,15.833335 0.0808,16.500005 2,16.500005 1.896,0 1.99943,-0.663 1.98899,-12.75 z M 66,96.361855 c 0,-14 -0.22727,-16.5 -1.5,-16.5 -1.27273,0 -1.5,2.5 -1.5,16.5 0,14.000005 0.22727,16.500005 1.5,16.500005 1.27273,0 1.5,-2.5 1.5,-16.500005 z m 4.77363,15.661065 c 0.97288,-0.61743 0.79578,-1.24076 -0.75,-2.63967 C 68.0404,107.58845 68,107.60489 68,110.20687 c 0,2.76639 0.62816,3.17768 2.77363,1.81605 z m -20.15743,-2.96639 2.11621,-2.69467 h -9.79883 c -10.514778,0 -10.651317,0.52143 -0.94968,3.62681 6.83668,2.18834 6.12101,2.26561 8.6323,-0.93214 z M 87,107.27006 c 0,-0.22451 -3.67844,-0.4082 -8.17431,-0.4082 h -8.17432 l 2.25988,2.40553 2.25988,2.40553 5.91443,-1.99733 C 84.3385,108.57705 87,107.49456 87,107.27006 Z m -52.23813,-46.408205 -0.23188,-32.5 -0.27945,30.75 c -0.23999,26.40831 -0.48919,30.75 -1.764992,30.75 -1.274215,0 -1.518689,-4.08996 -1.718508,-28.75 l -0.232961,-28.75 -0.283373,26.75 c -0.176682,16.6785 -0.653728,26.75 -1.267039,26.75 C 28.366753,85.861855 28,77.122045 28,62.420872 28,47.872239 27.620649,38.745437 27,38.361855 c -0.655123,-0.404888 -1,6.989616 -1,21.440983 0,14.039345 -0.363555,22.059017 -1,22.059017 -0.637681,0 -1,-8.333333 -1,-23 0,-22.333333 0.05797,-23 2,-23 1.466667,0 2,-0.666667 2,-2.5 0,-1.555556 0.566667,-2.5 1.5,-2.5 0.833333,0 1.5,-0.888889 1.5,-2 0,-1.292049 0.666667,-2 1.883369,-2 1.042361,0 2.116911,-0.893085 2.406381,-2 0.28765,-1.1 1.24014,-2 2.11663,-2 0.87649,0 1.59362,-0.45 1.59362,-1 0,-0.636555 8.04659,-1 22.13976,-1 19.90787,0 22.27496,-0.176416 23.48099,-1.75 1.17733,-1.536133 1.47638,-1.566685 2.44699,-0.25 0.89264,1.210896 1.00585,1.047755 0.5874,-0.846452 -0.28509,-1.290548 -0.27598,-2.978048 0.0202,-3.75 0.72422,-1.88729 4.23957,-1.788752 4.97954,0.13958 0.81528,2.124576 -0.53961,3.236657 -1.73967,1.427912 -0.72207,-1.088308 -0.83542,-0.820595 -0.43568,1.02896 0.58949,2.72743 -0.20516,4.451269 -2.37305,5.147882 -1.41787,0.455622 -11.45788,24.852118 -10.22748,24.852118 0.37001,0 2.66066,-5.189739 5.09033,-11.532754 2.46138,-6.425822 4.89533,-11.349424 5.49646,-11.118747 0.59339,0.227703 2.39265,-1.332557 3.99837,-3.467246 2.78854,-3.707161 6.33622,-5.409386 5.22191,-2.505544 -0.31798,0.828644 0.0937,1.325719 1.03538,1.25 2.53144,-0.203561 2.61239,2.189101 0.0862,2.547188 -1.53528,0.217624 -2.41868,1.111406 -2.63941,2.670448 -0.35987,2.541657 0.4029,2.501842 7.25353,-0.378629 l 3.05089,-1.282805 -3.98632,-3.768018 C 96.30053,13.428706 87.85484,8.3917452 79.82757,5.7621992 c -10.48573,-3.434885 -27.16941,-3.434885 -37.65515,0 C 13.382247,15.193195 -3.101121,45.540186 5.45478,73.361855 c 0.845698,2.75 1.98934,5.675 2.541426,6.5 0.892261,1.33333 1.114905,1.33333 2.003794,0 0.818889,-1.22833 1.155984,-1.2583 1.861262,-0.16547 0.657834,1.01932 0.989707,0.84337 1.405061,-0.74495 0.690343,-2.63988 3.316617,-3.680598 5.246412,-2.07901 1.923489,1.59635 1.91585,3.98943 -0.01273,3.98943 -0.825,0 -1.506634,-0.5625 -1.514742,-1.25 -0.0081,-0.6875 -0.585329,-0.125 -1.282713,1.25 -0.697384,1.375 -2.008989,2.50574 -2.914678,2.51275 -0.90569,0.007 -1.916261,0.28231 -2.245713,0.61176 -1.068873,1.06888 7.291968,11.24998 13.201755,16.075955 l 5.756091,4.70046 2.746882,-5.700465 2.746883,-5.70046 z m -14.56187,34.8 c -1.415767,-1.41577 -1.593539,-3.8 -0.283333,-3.8 0.504166,0 1.14364,0.5625 1.421052,1.25 0.277413,0.6875 0.539913,0.0428 0.583334,-1.43261 0.09908,-3.36669 3.541432,-4.78348 5.897597,-2.42731 1.27568,1.27568 1.34523,1.84604 0.346852,2.84442 -0.998378,0.99838 -1.437883,0.94968 -2.19183,-0.24286 -0.769913,-1.21779 -0.945858,-1.11528 -0.958359,0.55836 -0.01451,1.94205 -1.713888,4.45 -3.015313,4.45 -0.33,0 -1.14,-0.54 -1.8,-1.2 z m -5.735391,-6.91151 c -0.986161,-3.10712 1.904822,-5.76338 4.505196,-4.13942 1.221419,0.76279 2.161211,0.84796 2.542852,0.23045 0.860386,-1.39213 2.489666,-1.21408 2.474964,0.27048 -0.01257,1.26927 -6.173537,5.75 -7.906209,5.75 -0.52065,0 -1.248211,-0.95018 -1.616803,-2.11151 z M 5.418137,67.945188 C 4.270701,66.801786 5.377467,66.057112 9.111763,65.459974 12.938289,64.848088 16,65.891456 16,67.807343 c 0,0.73355 -9.855224,0.86193 -10.581863,0.137845 z M 12,62.445188 c 0,-0.870833 0.7125,-1.583333 1.583333,-1.583333 1.765927,0 1.45839,2.152759 -0.395833,2.770833 C 12.534375,63.850397 12,63.316022 12,62.445188 Z M 9.25,55.599682 c -4.806866,-1.155899 -5.809445,-3.699447 -1.5,-3.805507 2.70054,-0.06646 2.709533,-0.0872 0.5,-1.152815 -2.727957,-1.315644 -2.97242,-3.779505 -0.375,-3.779505 5.546407,0 11.447593,2.850109 6.375,3.078947 -1.045438,0.04716 -1.246741,0.282017 -0.5,0.583334 1.799922,0.726284 1.537567,2.115922 -0.5,2.648393 -1.666667,0.435546 -1.666667,0.462847 0,0.573325 0.9625,0.0638 1.75,0.791001 1.75,1.616001 0,1.666419 0.162859,1.659683 -5.75,0.237827 z m 1,-10.984575 C 8.4625,44.041692 7,43.214189 7,42.776212 c 0,-1.551026 1.986377,-1.992015 4.034772,-0.895748 1.141858,0.611104 2.613658,0.902457 3.270667,0.64745 C 14.962447,42.272908 14.0375,41.524702 12.25,40.865235 10.4625,40.205769 9,39.035226 9,38.26403 c 0,-1.734385 -0.0423,-1.735623 4.421387,0.129425 4.147779,1.733053 5.379732,3.798184 3.568044,5.981135 -1.395821,1.681861 -2.161196,1.709176 -6.739431,0.240517 z m 4.471601,-8.138607 -3.778398,-2.322935 1.93301,-2.387168 c 1.811196,-2.236731 2.049305,-2.283178 3.778399,-0.73703 1.014963,0.907576 2.942066,1.803667 4.28245,1.991313 2.285061,0.319896 2.331838,0.445868 0.75,2.019746 C 20.759178,35.963641 20,37.201141 20,37.790426 20,39.343154 18.965551,39.085654 14.721601,36.4765 Z M 19,29.861855 c -2.316429,-2.316429 -2.461538,-3.808208 -0.607954,-6.25 1.955338,-2.575836 2.647015,-2.147898 2.36176,1.461213 -0.193301,2.445684 0.168054,3.255791 1.515797,3.398211 1.213459,0.12823 1.292028,0.03881 0.25,-0.284536 -1.951574,-0.605578 -1.955311,-2.220461 -0.0069,-2.968148 1.5229,-0.584392 4.487265,1.195494 4.487265,2.694276 0,1.325751 -3.036711,3.948984 -4.571429,3.948984 -0.785714,0 -2.328571,-0.9 -3.428571,-2 z m 6.485043,-7.033169 c -2.553954,-5.663659 -0.883769,-7.135474 3.930368,-3.463553 3.980384,3.035987 4.712359,4.989438 1.485869,3.965389 -1.78619,-0.566914 -1.999527,-0.353577 -1.432613,1.432613 1.23741,3.898731 -2.079561,2.28801 -3.983624,-1.934449 z M 34,21.061855 c 0,-0.44 0.54,-1.34 1.2,-2 0.93333,-0.933333 0.70561,-1.2 -1.02475,-1.2 -1.472203,0 -2.557062,-0.874041 -3.207155,-2.583916 -1.448906,-3.810912 -0.08519,-5.4087108 2.967605,-3.476987 1.18984,0.7529 1.21168,1.178393 0.12755,2.484688 -1.132488,1.364569 -0.9672,1.576215 1.23097,1.576215 2.87221,0 3.86523,1.664518 2.53547,4.25 C 36.93289,21.855524 34,22.583062 34,21.061855 Z m 5.63029,-4.45 C 38.61172,12.811091 38.92751,8.8618532 40.25,8.8618842 c 1.20587,2.9e-5 6.75,6.2053028 6.75,7.5549498 0,0.36401 -1.125,0.37948 -2.5,0.03438 -1.84487,-0.463035 -2.5,-0.229389 -2.5,0.891589 0,2.326218 -1.69014,1.804889 -2.36971,-0.730948 z m 40.4813,0.556273 C 79.53366,16.174678 79.04713,15.924355 79.03041,16.611855 78.98731,18.384317 77,18.172832 77,16.395782 c 0,-2.128278 3.21173,-8.5339268 4.27883,-8.5339268 0.49963,0 1.15371,0.938041 1.45353,2.084535 0.40329,1.5422118 0.75504,1.7448698 1.352,0.7789598 1.59462,-2.5801458 2.17471,0.168877 0.7986,3.784498 -1.63287,4.290218 -3.28617,5.211324 -4.77137,2.65828 z M 73,14.361855 c 0,-0.825 -0.45,-1.5 -1,-1.5 -0.55,0 -1,0.45 -1,1 0,0.55 -0.7125,1 -1.58333,1 -0.87084,0 -1.4216,-0.3375 -1.22392,-0.75 2.79045,-5.8227778 4.40638,-8.2499998 5.49246,-8.2499998 0.72314,0 1.31479,0.84375 1.31479,1.875 0,1.03125 0.28125,3.2812498 0.625,4.9999998 0.49487,2.474359 0.28667,3.125 -1,3.125 -0.89375,0 -1.625,-0.675 -1.625,-1.5 z M 61,10.33047 c 0,-3.2727378 0.4544,-4.7057528 1.63592,-5.1591468 2.50083,-0.959658 4.85359,1.081021 4.95682,4.299333 0.1183,3.6879498 -1.21341,5.3911988 -4.21519,5.3911988 C 61.22394,14.861855 61,14.435049 61,10.33047 Z m 27.30644,86.531385 c -1.87837,-4.125 -3.75088,-7.83764 -4.16113,-8.25031 -0.60902,-0.6126 -10.88611,10.72065 -13.30509,14.672455 -0.45579,0.7446 2.67032,1.07786 10.11082,1.07786 h 10.77061 z m -37.22456,4.250005 c -1.12987,-1.512505 -4.0322,-5.306525 -6.44962,-8.431145 l -4.3953,-5.68115 -3.20957,7.18115 c -1.76527,3.94963 -3.44173,7.743645 -3.725474,8.431145 -0.392864,0.9519 1.910644,1.25 9.659184,1.25 H 53.13619 Z M 79.88193,88.611855 c 1.26771,-1.6277 0.90016,-1.75 -5.25949,-1.75 H 68 v 8.05691 8.056905 l 5.25948,-6.306905 c 2.89272,-3.4688 5.87282,-7.09441 6.62245,-8.05691 z m 19.83769,10.51652 c 6.2177,-5.09494 13.69367,-16.03782 16.46052,-24.09394 3.19853,-9.312997 3.20335,-24.912139 0.0105,-33.927548 -2.83148,-7.995023 -7.90332,-16.292514 -9.56827,-15.653614 -0.69855,0.268061 -2.36186,2.256528 -3.69623,4.418816 -2.55572,4.141423 -4.58437,4.706319 -4.19475,1.168062 0.15056,-1.367206 -0.22082,-1.927711 -1.06309,-1.6045 -1.92643,0.73924 -5.04217,-3.154433 -4.23033,-5.286551 0.5428,-1.425516 0.42771,-1.5363 -0.56859,-0.547368 -0.68702,0.681933 -1.34662,1.806933 -1.46578,2.5 -0.11916,0.693068 -1.83372,5.405658 -3.81012,10.472424 -1.97641,5.066766 -3.59435,9.341766 -3.59544,9.5 -0.001,0.158234 5.17392,0.147956 11.5,-0.02284 C 103.13228,45.845198 107,46.097396 107,46.801315 c 0,1.590676 3.57598,1.276376 5,-0.43946 1.38441,-1.668108 4,-2.027549 4,-0.54969 0,0.52267 -0.7875,1.408986 -1.75,1.969591 -1.55235,0.904163 -1.56444,1.022716 -0.10699,1.04969 0.90366,0.01673 1.90417,0.710974 2.22336,1.542775 0.45296,1.180391 0.0481,1.378767 -1.84462,0.903736 -7.40429,-1.858357 -8.13785,-1.489496 -11.00398,5.533209 -10.69288,26.200089 -13.80338,32.878319 -15.08464,32.386649 -0.85017,-0.32623 -0.15746,2.12584 1.85501,6.56645 1.76652,3.89791 3.58613,7.089475 4.04356,7.092355 0.45744,0.003 2.882,-1.67482 5.38792,-3.728245 z m -0.96452,-8.11257 c -3.99881,-1.76609 -5.38941,-4.80744 -1.65638,-3.62262 1.7707,0.562 1.9977,0.34783 1.4524,-1.37026 -0.82698,-2.6056 2.97349,-7.16107 5.97423,-7.16107 3.00869,0 5.82035,3.33543 4.9974,5.92834 -0.95562,3.01087 -3.72792,2.73732 -2.96741,-0.29281 0.78937,-3.14509 -2.16691,-4.38715 -4.54432,-1.90925 -1.60596,1.67385 -1.56489,1.95429 0.72932,4.9805 1.33711,1.76373 2.14098,3.67623 1.78637,4.25 -0.79865,1.29225 -1.13331,1.2457 -5.77161,-0.80283 z m 8.4949,-12.99344 c -2.3375,-0.87936 -4.25,-2.17522 -4.25,-2.879676 0,-1.650333 0.55604,-1.6158 5.71657,0.355026 2.35589,0.89972 4.28343,2.24972 4.28343,3 0,1.61628 -0.24365,1.59614 -5.75,-0.47535 z m 3.25,-4.16051 c -0.33992,-0.55 -1.71648,-1 -3.05902,-1 -3.06764,0 -3.24441,-1.958578 -0.19098,-2.116001 1.69317,-0.08729 1.81691,-0.22918 0.5,-0.573325 -0.9625,-0.251527 -1.75,-1.129651 -1.75,-1.951386 0,-0.954308 0.63222,-1.306241 1.75,-0.974163 0.9625,0.285945 2.9875,0.815053 4.5,1.175795 2.91817,0.696006 3.64303,3.146055 1.55,5.23908 -1.46225,1.462247 -2.4817,1.524032 -3.3,0.2 z m 3.5,-8 c 0,-0.55 -1.78588,-1 -3.96862,-1 -3.21953,0 -3.85325,-0.300634 -3.35741,-1.59276 0.43793,-1.141226 1.563,-1.481643 3.96861,-1.200801 1.84658,0.215578 3.35742,0.03232 3.35742,-0.40724 0,-0.439559 0.675,-0.799199 1.5,-0.799199 1.65423,0 1.7565,0.44097 0.86971,3.75 -0.59844,2.23308 -2.36971,3.167408 -2.36971,1.25 z m -6.33333,-7.666667 c -1.23076,-1.230752 -0.68186,-4.113527 0.89872,-4.720052 1.20169,-0.46113 1.41837,-0.137475 0.93261,1.393011 -0.74271,2.340068 1.00486,2.731608 1.89054,0.423571 0.92052,-2.398833 5.04523,-1.396224 5.43101,1.320137 0.22237,1.565701 -0.19034,2.25 -1.35699,2.25 -1.07941,0 -1.47153,-0.534248 -1.10093,-1.5 0.31658,-0.825 0.18787,-1.5 -0.28603,-1.5 -0.47389,0 -1.12064,0.675 -1.43723,1.5 -0.58389,1.521602 -3.75235,2.052684 -4.9717,0.833333 z m -3.45052,-15.758287 c -1.04574,-2.295144 -0.85687,-2.50946 3.52823,-4.003615 3.66174,-1.247678 4.79999,-1.315828 5.42906,-0.325046 1.20022,1.890373 0.99019,3.372924 -0.67344,4.753615 -0.825,0.684689 -1.5,0.874789 -1.5,0.422445 0,-0.452345 -0.54,-0.282445 -1.2,0.377555 -1.9294,1.929403 -4.39286,1.388983 -5.58385,-1.224954 z M 108,41.861855 c 0,-0.55 -0.19844,-1 -0.44098,-1 -0.24254,0 -0.7191,0.45 -1.05902,1 -0.33992,0.55 -0.14148,1 0.44098,1 0.58246,0 1.05902,-0.45 1.05902,-1 z m -53.34038,45.32629 c -0.23807,-0.23808 -2.94561,-0.29639 -6.01675,-0.12958 l -5.58389,0.30329 5.72051,7.2602 5.72051,7.260195 0.29624,-7.130625 c 0.16293,-3.92184 0.10145,-7.32541 -0.13662,-7.56348 z m -14.7099,-23.32629 c 0.0461,-21.346855 -0.87447,-38 -2.10054,-38 -0.46705,0 -0.81263,14.0625 -0.76796,31.25 0.071,27.33179 0.25345,30.87385 1.45489,28.25 1.00195,-2.18816 1.38449,-8.00633 1.41361,-21.5 z m 55.06155,4.402296 C 98.85507,59.059893 102,51.153998 102,50.695496 c 0,-0.458503 -4.45598,-0.833641 -9.90218,-0.833641 h -9.90217 l -1.09783,3.149223 c -0.6038,1.732073 -1.09864,3.194573 -1.09964,3.25 -0.001,0.05543 2.74662,-0.05409 6.10584,-0.24338 3.35922,-0.189286 6.56679,0.114972 7.12795,0.67613 0.69372,0.693717 -0.6358,4.941602 -4.15373,13.271436 -4.68895,11.102601 -5.06086,12.524341 -3.96698,15.165181 1.49361,3.60591 0.9979,4.45043 9.90001,-16.866294 z M 55,78.861855 c 0,-3.3 -0.12659,-6 -0.2813,-6 -0.15472,0 -2.95313,2.7 -6.2187,6 l -5.93739,6 H 48.7813 55 Z m 26,5.67758 c 0,-0.17733 -2.925,-2.90639 -6.5,-6.06458 L 68,72.732704 v 6.064571 6.06458 h 6.5 c 3.575,0 6.5,-0.14509 6.5,-0.32242 z m -2.22212,-7.98033 c -1.89215,-4.112944 -2.54141,-4.694602 -5.21942,-4.675966 l -3.05846,0.02128 5,4.757516 c 2.75,2.61664 5.09874,4.72082 5.21941,4.67597 0.12068,-0.0448 -0.75301,-2.19531 -1.94153,-4.7788 z m -30.4414,-0.53123 c 4.68333,-4.75483 4.71391,-4.82703 1.8676,-4.40928 -2.2514,0.330435 -3.3692,1.403414 -5.03589,4.83398 -1.17821,2.4251 -2.01863,4.40928 -1.8676,4.40928 0.15103,0 2.41718,-2.17529 5.03589,-4.83398 z m 35.63289,0.33398 c 0,-0.55 -0.43621,-0.325 -0.96937,0.5 -0.53316,0.825 -0.96937,1.95 -0.96937,2.5 0,0.55 0.43621,0.325 0.96937,-0.5 0.53316,-0.825 0.96937,-1.95 0.96937,-2.5 z M 50.48033,59.230091 c 2.29368,-5.106491 2.29584,-5.152305 0.43765,-9.302686 l -1.86737,-4.170923 2.63168,-6.697313 C 54.89525,30.882585 55.84466,29.58797 58.18014,30.198713 59.71059,30.598934 60,30.053392 60,26.768235 v -3.90638 h -9 -9 l 0.04589,27.25 0.04589,27.25 3.04176,-6.5 c 1.67297,-3.575 4.07902,-8.809294 5.34679,-11.631764 z m 8.40956,16.264444 C 59.75302,74.454527 59.66263,73.826756 58.51233,72.872089 57.22794,71.806141 57,72.012227 57,74.23941 c 0,2.985255 0.29268,3.179635 1.88989,1.255125 z M 66,74.661855 C 66,73.046438 65.70429,72.757566 64.88713,73.574723 64.27505,74.1868 64.07661,75.1768 64.44615,75.774725 65.48054,77.448405 66,77.076365 66,74.661855 Z M 84.06271,69.383812 C 85.67822,65.820889 87,62.670889 87,62.383812 87,62.096736 84.09705,61.861855 80.549,61.861855 h -6.451 l 3.201,6.959958 c 1.76055,3.827976 3.34172,6.977972 3.51371,7.000002 0.172,0.022 1.6345,-2.875079 3.25,-6.438003 z M 60,51.361855 c 0,-15.777778 -0.22072,-18.5 -1.5,-18.5 -1.27928,0 -1.5,2.722222 -1.5,18.5 0,15.777778 0.22072,18.5 1.5,18.5 1.27928,0 1.5,-2.722222 1.5,-18.5 z m 6,0 c 0,-15.777778 -0.22072,-18.5 -1.5,-18.5 -1.27928,0 -1.5,2.722222 -1.5,18.5 0,15.777778 0.22072,18.5 1.5,18.5 1.27928,0 1.5,-2.722222 1.5,-18.5 z m 9,18.047053 c 0,-1.125488 -2.39131,-5.547053 -3,-5.547053 -0.6087,0 -3,4.421565 -3,5.547053 0,0.249121 1.35,0.452947 3,0.452947 1.65,0 3,-0.203826 3,-0.452947 z m -21,-1 c 0,-0.249121 -0.53347,-1.623783 -1.18549,-3.054805 l -1.18548,-2.601857 -1.27908,2.304804 c -1.82296,3.28483 -1.66579,3.804805 1.15005,3.804805 1.375,0 2.5,-0.203826 2.5,-0.452947 z m 15.98469,-6.797053 c 0.0084,-0.4125 -0.43469,-0.75 -0.98469,-0.75 -0.55,0 -0.99311,1.0125 -0.98469,2.25 0.0124,1.819438 0.20082,1.962959 0.98469,0.75 0.53316,-0.825 0.97626,-1.8375 0.98469,-2.25 z M 55,61.802838 C 55,60.670379 54.56965,60.00979 54.04367,60.334863 53.51769,60.659936 53.34084,61.586494 53.65066,62.39388 54.44389,64.460993 55,64.217403 55,61.802838 Z m 36,-1.940983 c 0,-0.584948 -2.8016,-0.928362 -6.75,-0.827401 l -6.75,0.172599 6.5,0.654802 c 3.575,0.360141 6.6125,0.732472 6.75,0.827401 0.1375,0.09493 0.25,-0.277401 0.25,-0.827401 z M 76.99918,50.228486 c 4.5e-4,-0.07335 -0.86567,-0.35996 -1.92471,-0.636904 -2.78937,-0.729438 -4.56646,3.860048 -3.03433,7.8364 l 1.13045,2.933873 1.91389,-5 c 1.05264,-2.75 1.91426,-5.060016 1.9147,-5.133369 z m -6.55276,-1.116631 c 0.51064,-1.669107 0.2837,-2.25 -0.87903,-2.25 -1.14995,0 -1.55929,0.998743 -1.53698,3.75 0.0311,3.836354 0.95985,3.259738 2.41601,-1.5 z M 55,49.861855 c 0,-1.918041 -0.50965,-3 -1.41314,-3 -1.15512,0 -1.20638,0.547746 -0.28076,3 0.62281,1.65 1.25872,3 1.41314,3 0.15442,0 0.28076,-1.35 0.28076,-3 z m 24.03,-17.25 3.75222,-9.75 H 72.89111 63 v 3.861328 c 0,3.516499 0.21038,3.821111 2.3558,3.410988 1.9637,-0.375384 2.616,0.188643 3.91906,3.388672 4.07651,10.011078 5.02601,11.793713 5.50698,10.339012 0.27276,-0.825 2.18444,-5.8875 4.24816,-11.25 z m -8.68492,8.706872 c -0.32569,-0.848721 -0.80663,-1.32866 -1.06875,-1.066531 -0.26213,0.262128 -0.17998,0.956536 0.18255,1.543128 0.98605,1.595461 1.56238,1.28551 0.8862,-0.476597 z"
     id="path30"
     inkscape:connector-curvature="0" />
</svg>
